0
SECTION
2
ENTITIES
0
LWPOLYLINE
8
A-AREA
90
5
10
0.0
20
0.0
10
400.0
20
0.0
10
400.0
20
300.0
10
0.0
20
300.0
70
1
0
LWPOLYLINE
8
A-AREA
90
5
10
400.0
20
0.0
10
700.0
20
0.0
10
700.0
20
300.0
10
400.0
20
300.0
70
1
0
LWPOLYLINE
8
A-AREA
90
5
10
0.0
20
300.0
10
300.0
20
300.0
10
300.0
20
600.0
10
0.0
20
600.0
70
1
0
LWPOLYLINE
8
A-AREA
90
5
10
300.0
20
300.0
10
600.0
20
300.0
10
600.0
20
600.0
10
300.0
20
600.0
70
1
0
LWPOLYLINE
8
A-AREA
90
5
10
310.0
20
300.0
10
510.0
20
300.0
10
510.0
20
500.0
10
310.0
20
500.0
70
1
0
ENDSEC
0
EOF