0
SECTION
2
ENTITIES
0
LWPOLYLINE
8
A-AREA
90
5
10
700.0
20
270.0
10
1070.0
20
270.0
10
1070.0
20
650.0
10
700.0
20
650.0
70
1
0
LWPOLYLINE
8
A-AREA
90
5
10
1090.0
20
20.0
10
1390.0
20
20.0
10
1390.0
20
290.0
10
1090.0
20
290.0
70
1
0
LWPOLYLINE
8
A-AREA
90
5
10
1080.0
20
300.0
10
1400.0
20
300.0
10
1400.0
20
620.0
10
1080.0
20
620.0
70
1
0
LWPOLYLINE
8
A-AREA
90
5
10
360.0
20
300.0
10
680.0
20
300.0
10
680.0
20
620.0
10
360.0
20
620.0
70
1
0
LWPOLYLINE
8
A-AREA
90
5
10
500.0
20
670.0
10
800.0
20
670.0
10
800.0
20
970.0
10
500.0
20
970.0
70
1
0
LWPOLYLINE
8
A-AREA
90
5
10
820.0
20
670.0
10
980.0
20
670.0
10
980.0
20
870.0
10
820.0
20
870.0
70
1
0
LWPOLYLINE
8
A-AREA
90
5
10
1020.0
20
670.0
10
1180.0
20
670.0
10
1180.0
20
870.0
10
1020.0
20
870.0
70
1
0
ENDSEC
0
EOF