0
SECTION
2
ENTITIES
0
LWPOLYLINE
8
A-AREA
90
5
10
0.0
20
0.0
10
350.0
20
0.0
10
350.0
20
350.0
10
0.0
20
350.0
70
1
0
LWPOLYLINE
8
A-AREA
90
5
10
370.0
20
0.0
10
670.0
20
0.0
10
670.0
20
300.0
10
370.0
20
300.0
70
1
0
LWPOLYLINE
8
A-AREA
90
5
10
690.0
20
0.0
10
990.0
20
0.0
10
990.0
20
300.0
10
690.0
20
300.0
70
1
0
LWPOLYLINE
8
A-AREA
90
5
10
0.0
20
350.0
10
270.0
20
350.0
10
270.0
20
630.0
10
0.0
20
630.0
70
1
0
LWPOLYLINE
8
A-AREA
90
5
10
290.0
20
350.0
10
440.0
20
350.0
10
440.0
20
530.0
10
290.0
20
530.0
70
1
0
ENDSEC
0
EOF