0
SECTION
2
ENTITIES
0
LWPOLYLINE
8
A-AREA
90
5
10
245.0
20
289.0
10
577.0
20
289.0
10
577.0
20
597.0
10
245.0
20
597.0
70
1
0
LWPOLYLINE
8
A-AREA
90
5
10
35.0
20
611.0
10
283.0
20
611.0
10
283.0
20
893.0
10
35.0
20
893.0
70
1
0
LWPOLYLINE
8
A-AREA
90
5
10
265.0
20
629.0
10
533.0
20
629.0
10
533.0
20
921.0
10
265.0
20
921.0
70
1
0
LWPOLYLINE
8
A-AREA
90
5
10
615.0
20
11.0
10
900.0
20
11.0
10
900.0
20
279.0
10
615.0
20
279.0
70
1
0
LWPOLYLINE
8
A-AREA
90
5
10
565.0
20
349.0
10
703.0
20
349.0
10
703.0
20
541.0
10
565.0
20
541.0
70
1
0
ENDSEC
0
EOF