0
SECTION
2
ENTITIES
0
LWPOLYLINE
8
A-AREA
90
5
10
360.0
20
280.0
10
680.0
20
280.0
10
680.0
20
600.0
10
360.0
20
600.0
70
1
0
LWPOLYLINE
8
A-AREA
90
5
10
100.0
20
310.0
10
360.0
20
310.0
10
360.0
20
580.0
10
100.0
20
580.0
70
1
0
LWPOLYLINE
8
A-AREA
90
5
10
40.0
20
20.0
10
340.0
20
20.0
10
340.0
20
300.0
10
40.0
20
300.0
70
1
0
LWPOLYLINE
8
A-AREA
90
5
10
370.0
20
620.0
10
670.0
20
620.0
10
670.0
20
890.0
10
370.0
20
890.0
70
1
0
LWPOLYLINE
8
A-AREA
90
5
10
680.0
20
340.0
10
830.0
20
340.0
10
830.0
20
520.0
10
680.0
20
520.0
70
1
0
ENDSEC
0
EOF